# xmcd CD database file
# Copyright (C) 1995 Ti Kan
#
# Track frame offsets:
#	150
#	19510
#	30318
#	45875
#	60280
#	77073
#	89720
#	99613
#	120545
#	136243
#
# Disc length: 2081 seconds
#
# Revision: 1
# Processed by: cddbd v1.4b41PL1 Copyright (c) Steve Scherf et al.
# Submitted via: NotifyCDPlayer(CDDB) 1.05
#
DISCID=6c081f0a
DTITLE=Laura Bowly - Stones and Flowers
DYEAR=1900
DGENRE=
TTITLE0=A Heart That's True
TTITLE1=Wrong Way
TTITLE2=Stones and Flowers
TTITLE3=There You Go Again
TTITLE4=These Games You Play
TTITLE5=The Only One For Me
TTITLE6=The Foot of Your Bed
TTITLE7=Sing Me a Lullaby
TTITLE8=Hidden River
TTITLE9=Where Are the Dreams
EXTD=
EXTT0=
EXTT1=
EXTT2=
EXTT3=
EXTT4=
EXTT5=
EXTT6=
EXTT7=
EXTT8=
EXTT9=
PLAYORDER=
